<svg width="15" height="16" viewBox="0 0 15 16" fill="none" xmlns="http://www.w3.org/2000/svg">
<path d="M1.84057 1.3335L4.26666 1.42129C4.77766 1.43978 5.23115 1.76247 5.427 2.24696L6.14435 4.02158C6.31131 4.43456 6.26638 4.90574 6.0246 5.27772L5.10552 6.69183C5.64967 7.47323 7.12978 9.30403 8.69698 10.3757L9.86558 9.6565C10.1626 9.4737 10.5182 9.41943 10.8542 9.50556L13.1774 10.1013C13.7952 10.2598 14.2116 10.8523 14.1628 11.5036L14.0136 13.4925C13.9612 14.1904 13.39 14.7381 12.712 14.6593C3.76161 13.6186 -1.48706 1.33348 1.84057 1.3335Z" stroke="url(#paint0_linear_729_1636)" stroke-linecap="round" stroke-linejoin="round"/>
<defs>
<linearGradient id="paint0_linear_729_1636" x1="0.833313" y1="8.00017" x2="14.1667" y2="8.00017" gradientUnits="userSpaceOnUse">
<stop stop-color="#E0659B"/>
<stop offset="1" stop-color="#8B4DE6"/>
</linearGradient>
</defs>
</svg>
