<svg width="23" height="20" viewBox="0 0 23 20" fill="none" xmlns="http://www.w3.org/2000/svg">
<g clip-path="url(#clip0_1_3912)">
<path d="M22.069 5.21552C22.069 5.05747 22.051 4.89583 22.0151 4.7306C21.9792 4.56537 21.9109 4.37141 21.8103 4.14871C21.7098 3.92601 21.5374 3.72126 21.2931 3.53448C21.0489 3.3477 20.7471 3.20402 20.3879 3.10345L4.80603 0C4.43247 0 4.08764 0.0933908 3.77155 0.280172C3.45546 0.466954 3.20402 0.718391 3.01724 1.03448C2.83046 1.35057 2.73707 1.6954 2.73707 2.06897V4.82759H2.04741C1.48707 4.84195 1.00575 5.05029 0.603448 5.45259C0.201149 5.85489 0 6.33621 0 6.89655V17.931C0 18.5057 0.201149 18.9943 0.603448 19.3966C1.00575 19.7989 1.49425 20 2.06897 20H20C20.5747 20 21.0632 19.7989 21.4655 19.3966C21.8678 18.9943 22.069 18.5057 22.069 17.931V5.21552ZM4.11638 2.06897C4.11638 1.88218 4.17744 1.72414 4.29957 1.59483C4.4217 1.46552 4.57615 1.39368 4.76293 1.37931L19.9784 4.46121L19.9246 4.55819L19.7091 4.75216L19.3103 4.82759H4.11638V2.06897ZM20.6897 17.931C20.6897 18.1178 20.6214 18.2795 20.4849 18.4159C20.3484 18.5524 20.1868 18.6207 20 18.6207H2.06897C1.88218 18.6207 1.72055 18.5524 1.58405 18.4159C1.44756 18.2795 1.37931 18.1178 1.37931 17.931V6.89655C1.37931 6.70977 1.44756 6.54813 1.58405 6.41164C1.72055 6.27514 1.88218 6.2069 2.06897 6.2069H19.3103C19.6839 6.2069 20.0072 6.14583 20.2802 6.02371C20.5532 5.90158 20.6897 5.73276 20.6897 5.51724V17.931ZM4.12716 11.0345C3.74641 11.0345 3.42313 11.171 3.15733 11.444C2.89152 11.717 2.75862 12.0438 2.75862 12.4246C2.75862 12.8053 2.89152 13.1286 3.15733 13.3944C3.42313 13.6602 3.74641 13.7931 4.12716 13.7931C4.5079 13.7931 4.83477 13.6602 5.10776 13.3944C5.38075 13.1286 5.51724 12.8053 5.51724 12.4246C5.51724 12.0438 5.38075 11.717 5.10776 11.444C4.83477 11.171 4.5079 11.0345 4.12716 11.0345Z" fill="#F4F5F8"/>
</g>
<defs>
<clipPath id="clip0_1_3912">
<rect width="22.069" height="20" fill="white"/>
</clipPath>
</defs>
</svg>
